<svg width="363" height="119" viewBox="0 0 363 119" fill="none" xmlns="http://www.w3.org/2000/svg">
<path d="M47.88 111.48C32.92 111.48 21.84 107.24 14.64 98.76C12.08 95.72 10 91.68 8.4 86.64C6.8 81.6 6 75.48 6 68.28C6 61.08 7.16 54.64 9.48 48.96C11.88 43.2 15.12 38.76 19.2 35.64C27.12 29.8 36.68 26.88 47.88 26.88C51.48 26.88 55 27.16 58.44 27.72C61.88 28.2 64.44 28.72 66.12 29.28L68.64 30.12L68.28 31.32C62.04 29.16 55.24 28.08 47.88 28.08C39.4 28.08 32.32 30.84 26.64 36.36C22.32 40.44 19.28 46.44 17.52 54.36C16.48 58.84 15.96 64.32 15.96 70.8C15.96 77.28 16.88 83.28 18.72 88.8C20.56 94.24 22.64 98.28 24.96 100.92C27.36 103.56 30.24 105.68 33.6 107.28C36.96 108.8 39.64 109.68 41.64 109.92C43.64 110.16 46 110.28 48.72 110.28C51.52 110.28 55.24 109.96 59.88 109.32V84.6H45.36V83.4H75V84.6H69.84V108.24C63.76 110.4 56.44 111.48 47.88 111.48ZM95.6259 111C88.5859 111 84.1459 109.16 82.3059 105.48C81.9059 104.68 81.7059 103.96 81.7059 103.32V21.12H90.1059V102.48C90.1059 104.8 90.5459 106.6 91.4259 107.88C92.3859 109.08 93.3459 109.72 94.3059 109.8L95.6259 110.04H99.3459V111H95.6259ZM130.857 111.48C122.457 111.48 115.617 109.08 110.337 104.28C105.057 99.48 102.417 92.08 102.417 82.08C102.417 72.08 105.137 64.32 110.577 58.8C116.097 53.28 123.057 50.52 131.457 50.52C139.937 50.52 146.817 52.92 152.097 57.72C157.377 62.52 160.017 69.92 160.017 79.92C160.017 89.92 157.257 97.68 151.737 103.2C146.297 108.72 139.337 111.48 130.857 111.48ZM131.697 51.48C125.617 51.48 120.577 54.2 116.577 59.64C112.577 65 110.577 72.52 110.577 82.2C110.577 91.8 112.417 98.92 116.097 103.56C119.777 108.2 124.657 110.52 130.737 110.52C136.817 110.52 141.857 107.84 145.857 102.48C149.857 97.04 151.857 89.52 151.857 79.92C151.857 70.24 150.017 63.08 146.337 58.44C142.657 53.8 137.777 51.48 131.697 51.48ZM248.613 51.72L249.333 51C249.653 51.16 250.053 51.64 250.533 52.44C251.093 53.24 251.413 53.96 251.493 54.6C251.653 55.24 251.733 55.84 251.733 56.4C251.733 58.56 251.253 60.76 250.293 63L228.453 111H227.253L209.973 64.56L188.853 111H187.653L165.333 51H173.733L192.093 100.68L209.373 63.12L204.933 51H213.333L231.693 100.68L249.093 63C250.053 61.32 250.533 59.32 250.533 57C250.533 54.68 249.893 52.92 248.613 51.72Z" fill="black"/>
<path d="M266.08 98.48C264.907 98.48 263.787 98.4267 262.72 98.32C261.653 98.2133 260.293 97.8933 258.64 97.36C258.373 97.1467 258.053 96.6667 257.68 95.92C257.36 95.12 257.2 94.5067 257.2 94.08C257.2 93.8667 257.28 93.76 257.44 93.76C257.707 93.76 258.427 93.92 259.6 94.24C260.773 94.5067 262.347 94.64 264.32 94.64C266.933 94.64 269.093 94.1333 270.8 93.12C272.507 92.0533 273.36 90.56 273.36 88.64C273.36 87.36 272.907 86.1333 272 84.96C271.147 83.7867 270.08 82.64 268.8 81.52C267.52 80.3467 266.213 79.1467 264.88 77.92C263.6 76.6933 262.507 75.3867 261.6 74C260.747 72.56 260.32 70.9867 260.32 69.28C260.32 68.48 260.56 67.4933 261.04 66.32C261.52 65.1467 262.48 63.9467 263.92 62.72C265.36 61.4933 267.52 60.3467 270.4 59.28C273.28 58.2133 277.093 57.36 281.84 56.72L283.6 58.24L281.04 65.36C280.027 64.6667 278.853 64.1067 277.52 63.68C276.24 63.2 274.987 62.96 273.76 62.96C272.213 62.96 270.827 63.3067 269.6 64C268.427 64.64 267.84 65.8133 267.84 67.52C267.84 68.7467 268.32 69.9733 269.28 71.2C270.24 72.3733 271.413 73.5733 272.8 74.8C274.24 75.9733 275.653 77.2267 277.04 78.56C278.427 79.84 279.6 81.2533 280.56 82.8C281.52 84.2933 282 85.92 282 87.68C282 88.6933 281.813 89.8133 281.44 91.04C281.067 92.2667 280.32 93.44 279.2 94.56C278.133 95.68 276.533 96.6133 274.4 97.36C272.32 98.1067 269.547 98.48 266.08 98.48ZM289.773 118C289.346 118 289.133 117.867 289.133 117.6C290.466 111.467 291.4 105.653 291.933 100.16C292.466 94.72 292.733 89.7333 292.733 85.2C292.733 81.4667 292.573 77.8933 292.253 74.48C291.933 71.0667 291.533 67.9733 291.053 65.2C290.573 62.4267 290.093 60.2133 289.613 58.56L291.613 57.2L298.013 60.4C298.6 64.5067 298.84 68.9067 298.733 73.6L299.373 73.76C300.866 70.4 302.52 67.44 304.333 64.88C306.2 62.32 308.12 60.32 310.093 58.88C312.066 57.44 313.96 56.72 315.773 56.72C318.173 56.72 319.906 57.5733 320.973 59.28C322.093 60.9333 322.653 63.0933 322.653 65.76C322.653 68.32 322.173 71.12 321.213 74.16C320.306 77.1467 318.84 80.1333 316.813 83.12C314.786 86.1067 312.12 88.88 308.813 91.44C305.506 94 301.48 96.08 296.733 97.68C296.2 101.307 295.613 104.747 294.973 108C294.333 111.253 293.72 114.133 293.133 116.64C292.76 117.013 292.2 117.333 291.453 117.6C290.76 117.867 290.2 118 289.773 118ZM297.373 93.2C301.64 91.7067 305.053 89.7333 307.613 87.28C310.226 84.7733 312.12 82.1867 313.293 79.52C314.52 76.8 315.133 74.4 315.133 72.32C315.133 70.56 314.84 69.12 314.253 68C313.72 66.88 312.68 66.32 311.133 66.32C310.173 66.32 309.026 66.8 307.693 67.76C306.413 68.72 305.08 70.2667 303.693 72.4C302.36 74.48 301.106 77.2533 299.933 80.72C298.813 84.1333 297.96 88.2933 297.373 93.2ZM357.781 98.24C357.407 98.24 356.901 98.1333 356.261 97.92C355.621 97.7067 355.141 97.44 354.821 97.12C353.861 94.9333 353.034 92.2667 352.341 89.12C351.701 85.92 351.167 82.7733 350.741 79.68C349.247 83.2 347.541 86.32 345.621 89.04C343.701 91.76 341.727 93.8933 339.701 95.44C337.727 96.9867 335.807 97.76 333.941 97.76C331.541 97.76 329.781 96.9067 328.661 95.2C327.594 93.4933 327.061 91.3333 327.061 88.72C327.061 85.0933 327.754 81.76 329.141 78.72C330.527 75.6267 332.367 72.8533 334.661 70.4C337.007 67.8933 339.541 65.7333 342.261 63.92C345.034 62.0533 347.781 60.5333 350.501 59.36L356.981 56.56L358.901 57.68C358.101 60.0267 357.461 62.8533 356.981 66.16C356.501 69.4667 356.261 72.6133 356.261 75.6C356.261 77.04 356.314 78.8267 356.421 80.96C356.581 83.0933 356.767 85.3067 356.981 87.6C357.194 89.84 357.407 91.92 357.621 93.84C357.887 95.7067 358.127 97.0933 358.341 98C358.341 98.16 358.154 98.24 357.781 98.24ZM338.581 88.16C340.181 88.16 342.047 86.8533 344.181 84.24C346.314 81.6267 348.234 77.68 349.941 72.4C349.887 71.8133 349.861 71.28 349.861 70.8C349.861 70.2667 349.861 69.7867 349.861 69.36C349.861 68.0267 349.861 66.88 349.861 65.92C349.861 64.96 349.887 64.1067 349.941 63.36C347.487 64.7467 345.087 66.3467 342.741 68.16C340.394 69.92 338.447 71.9733 336.901 74.32C335.354 76.6133 334.581 79.2533 334.581 82.24C334.581 83.9467 334.847 85.36 335.381 86.48C335.967 87.6 337.034 88.16 338.581 88.16Z" fill="#F821DB"/>
</svg>
